<mxfile host="app.diagrams.net" modified="2021-12-06T12:58:03.794Z" agent="5.0 (Macintosh; Intel Mac OS X 10_15_7) AppleWebKit/605.1.15 (KHTML, like Gecko) Version/15.1 Safari/605.1.15" etag="Fs_dGTiVMDKa2Bjv4Vcg" version="15.8.6" type="github" pages="4">
  <diagram id="M9CNCHa4zVw4FZ072GeC" name="Project Plan">
    <mxGraphModel dx="1940" dy="759" grid="1" gridSize="10" guides="1" tooltips="1" connect="1" arrows="1" fold="1" page="1" pageScale="1" pageWidth="827" pageHeight="1169" math="0" shadow="0">
      <root>
        <mxCell id="0" />
        <mxCell id="1" parent="0" />
        <mxCell id="SWVw84wdwCniEMFFV5wz-16" value="Iteration 1" style="shape=step;perimeter=stepPerimeter;whiteSpace=wrap;html=1;fixedSize=1;size=10;fillColor=#10739E;strokeColor=none;fontSize=17;fontColor=#FFFFFF;fontStyle=1;align=center;rounded=0;" parent="1" vertex="1">
          <mxGeometry x="-60" y="585" width="200" height="30" as="geometry" />
        </mxCell>
        <mxCell id="SWVw84wdwCniEMFFV5wz-17" value="Iteration 2" style="shape=step;perimeter=stepPerimeter;whiteSpace=wrap;html=1;fixedSize=1;size=10;fillColor=#F2931E;strokeColor=none;fontSize=17;fontColor=#FFFFFF;fontStyle=1;align=center;rounded=0;" parent="1" vertex="1">
          <mxGeometry x="140" y="585" width="200" height="30" as="geometry" />
        </mxCell>
        <mxCell id="SWVw84wdwCniEMFFV5wz-18" value="Iteration 3" style="shape=step;perimeter=stepPerimeter;whiteSpace=wrap;html=1;fixedSize=1;size=10;fillColor=#AE4132;strokeColor=none;fontSize=17;fontColor=#FFFFFF;fontStyle=1;align=center;rounded=0;" parent="1" vertex="1">
          <mxGeometry x="340" y="585" width="200" height="30" as="geometry" />
        </mxCell>
        <mxCell id="SWVw84wdwCniEMFFV5wz-19" value="Iteration 4" style="shape=step;perimeter=stepPerimeter;whiteSpace=wrap;html=1;fixedSize=1;size=10;fillColor=#23445D;strokeColor=none;fontSize=17;fontColor=#FFFFFF;fontStyle=1;align=center;rounded=0;" parent="1" vertex="1">
          <mxGeometry x="540" y="585" width="200" height="30" as="geometry" />
        </mxCell>
        <mxCell id="SWVw84wdwCniEMFFV5wz-20" value="Iteration 5" style="shape=step;perimeter=stepPerimeter;whiteSpace=wrap;html=1;fixedSize=1;size=10;fillColor=#12AAB5;strokeColor=none;fontSize=17;fontColor=#FFFFFF;fontStyle=1;align=center;rounded=0;" parent="1" vertex="1">
          <mxGeometry x="740" y="585" width="200" height="30" as="geometry" />
        </mxCell>
        <mxCell id="SWVw84wdwCniEMFFV5wz-21" value="&lt;b&gt;&amp;nbsp;- Upload CSV file&lt;br&gt;&amp;nbsp;- Upload xsl file&lt;br&gt;&amp;nbsp;- export file&lt;br&gt;&amp;nbsp;- incididunt ut labore et dolore&lt;br&gt;&amp;nbsp;- Initial delivery&lt;/b&gt;" style="shape=rect;fillColor=#B1DDF0;strokeColor=none;fontSize=12;html=1;whiteSpace=wrap;align=left;verticalAlign=top;spacing=5;rounded=0;" parent="1" vertex="1">
          <mxGeometry x="-60" y="625" width="190" height="120" as="geometry" />
        </mxCell>
        <mxCell id="SWVw84wdwCniEMFFV5wz-22" value="" style="shape=rect;fillColor=#B1DDF0;strokeColor=none;fontSize=12;html=1;whiteSpace=wrap;align=left;verticalAlign=top;spacing=5;rounded=0;" parent="1" vertex="1">
          <mxGeometry x="-60" y="755" width="190" height="120" as="geometry" />
        </mxCell>
        <mxCell id="SWVw84wdwCniEMFFV5wz-23" value="" style="shape=rect;fillColor=#B1DDF0;strokeColor=none;fontSize=12;html=1;whiteSpace=wrap;align=left;verticalAlign=top;spacing=5;rounded=0;" parent="1" vertex="1">
          <mxGeometry x="-60" y="885" width="190" height="120" as="geometry" />
        </mxCell>
        <mxCell id="SWVw84wdwCniEMFFV5wz-24" value="&amp;nbsp;" style="shape=rect;fillColor=#FCE7CD;strokeColor=none;fontSize=12;html=1;whiteSpace=wrap;align=left;verticalAlign=top;spacing=5;rounded=0;" parent="1" vertex="1">
          <mxGeometry x="140" y="625" width="190" height="120" as="geometry" />
        </mxCell>
        <mxCell id="SWVw84wdwCniEMFFV5wz-25" value="" style="shape=rect;fillColor=#FCE7CD;strokeColor=none;fontSize=12;html=1;whiteSpace=wrap;align=left;verticalAlign=top;spacing=5;rounded=0;" parent="1" vertex="1">
          <mxGeometry x="140" y="755" width="190" height="120" as="geometry" />
        </mxCell>
        <mxCell id="SWVw84wdwCniEMFFV5wz-26" value="" style="shape=rect;fillColor=#FCE7CD;strokeColor=none;fontSize=12;html=1;whiteSpace=wrap;align=left;verticalAlign=top;spacing=5;rounded=0;" parent="1" vertex="1">
          <mxGeometry x="140" y="885" width="190" height="120" as="geometry" />
        </mxCell>
        <mxCell id="SWVw84wdwCniEMFFV5wz-27" value="" style="shape=rect;fillColor=#FAD9D5;strokeColor=none;fontSize=12;html=1;whiteSpace=wrap;align=left;verticalAlign=top;spacing=5;rounded=0;" parent="1" vertex="1">
          <mxGeometry x="340" y="625" width="190" height="120" as="geometry" />
        </mxCell>
        <mxCell id="SWVw84wdwCniEMFFV5wz-28" value="" style="shape=rect;fillColor=#FAD9D5;strokeColor=none;fontSize=12;html=1;whiteSpace=wrap;align=left;verticalAlign=top;spacing=5;rounded=0;" parent="1" vertex="1">
          <mxGeometry x="340" y="755" width="190" height="120" as="geometry" />
        </mxCell>
        <mxCell id="SWVw84wdwCniEMFFV5wz-29" value="" style="shape=rect;fillColor=#FAD9D5;strokeColor=none;fontSize=12;html=1;whiteSpace=wrap;align=left;verticalAlign=top;spacing=5;rounded=0;" parent="1" vertex="1">
          <mxGeometry x="340" y="885" width="190" height="120" as="geometry" />
        </mxCell>
        <mxCell id="SWVw84wdwCniEMFFV5wz-30" value="" style="shape=rect;fillColor=#BAC8D3;strokeColor=none;fontSize=12;html=1;whiteSpace=wrap;align=left;verticalAlign=top;spacing=5;rounded=0;" parent="1" vertex="1">
          <mxGeometry x="540" y="625" width="190" height="120" as="geometry" />
        </mxCell>
        <mxCell id="SWVw84wdwCniEMFFV5wz-31" value="" style="shape=rect;fillColor=#BAC8D3;strokeColor=none;fontSize=12;html=1;whiteSpace=wrap;align=left;verticalAlign=top;spacing=5;rounded=0;" parent="1" vertex="1">
          <mxGeometry x="540" y="755" width="190" height="120" as="geometry" />
        </mxCell>
        <mxCell id="SWVw84wdwCniEMFFV5wz-32" value="" style="shape=rect;fillColor=#BAC8D3;strokeColor=none;fontSize=12;html=1;whiteSpace=wrap;align=left;verticalAlign=top;spacing=5;rounded=0;" parent="1" vertex="1">
          <mxGeometry x="540" y="885" width="190" height="120" as="geometry" />
        </mxCell>
        <mxCell id="SWVw84wdwCniEMFFV5wz-33" value="" style="shape=rect;fillColor=#B0E3E6;strokeColor=none;fontSize=12;html=1;whiteSpace=wrap;align=left;verticalAlign=top;spacing=5;rounded=0;" parent="1" vertex="1">
          <mxGeometry x="740" y="625" width="190" height="120" as="geometry" />
        </mxCell>
        <mxCell id="SWVw84wdwCniEMFFV5wz-34" value="" style="shape=rect;fillColor=#B0E3E6;strokeColor=none;fontSize=12;html=1;whiteSpace=wrap;align=left;verticalAlign=top;spacing=5;rounded=0;" parent="1" vertex="1">
          <mxGeometry x="740" y="755" width="190" height="120" as="geometry" />
        </mxCell>
        <mxCell id="SWVw84wdwCniEMFFV5wz-35" value="" style="shape=rect;fillColor=#B0E3E6;strokeColor=none;fontSize=12;html=1;whiteSpace=wrap;align=left;verticalAlign=top;spacing=5;rounded=0;" parent="1" vertex="1">
          <mxGeometry x="740" y="885" width="190" height="120" as="geometry" />
        </mxCell>
        <mxCell id="SWVw84wdwCniEMFFV5wz-54" value="0%" style="verticalLabelPosition=middle;verticalAlign=middle;html=1;html=1;shape=mxgraph.infographic.partConcEllipse;startAngle=0;endAngle=0.65;arcWidth=0.4;strokeColor=none;fillColor=#10739E;fontSize=22;fontColor=#10739E;align=center;fontStyle=1;" parent="1" vertex="1">
          <mxGeometry x="-20" y="430" width="100" height="100" as="geometry" />
        </mxCell>
        <mxCell id="SWVw84wdwCniEMFFV5wz-55" value="0%" style="verticalLabelPosition=middle;verticalAlign=middle;html=1;html=1;shape=mxgraph.infographic.partConcEllipse;startAngle=0;endAngle=0.4;arcWidth=0.4;strokeColor=none;fillColor=#F2931E;fontSize=22;fontColor=#F2931E;align=center;fontStyle=1;" parent="1" vertex="1">
          <mxGeometry x="190" y="430" width="100" height="100" as="geometry" />
        </mxCell>
        <mxCell id="SWVw84wdwCniEMFFV5wz-56" value="0%" style="verticalLabelPosition=middle;verticalAlign=middle;html=1;html=1;shape=mxgraph.infographic.partConcEllipse;startAngle=0;endAngle=0.25;arcWidth=0.4;strokeColor=none;fillColor=#AE4132;fontSize=22;fontColor=#AE4132;align=center;fontStyle=1;" parent="1" vertex="1">
          <mxGeometry x="380" y="430" width="100" height="100" as="geometry" />
        </mxCell>
        <mxCell id="SWVw84wdwCniEMFFV5wz-57" value="0%" style="verticalLabelPosition=middle;verticalAlign=middle;html=1;html=1;shape=mxgraph.infographic.partConcEllipse;startAngle=0;endAngle=0.6;arcWidth=0.4;strokeColor=none;fillColor=#23445D;fontSize=22;fontColor=#23445D;align=center;fontStyle=1;" parent="1" vertex="1">
          <mxGeometry x="590" y="430" width="100" height="100" as="geometry" />
        </mxCell>
        <mxCell id="SWVw84wdwCniEMFFV5wz-58" value="0%" style="verticalLabelPosition=middle;verticalAlign=middle;html=1;html=1;shape=mxgraph.infographic.partConcEllipse;startAngle=0;endAngle=0.8;arcWidth=0.4;strokeColor=none;fillColor=#12AAB5;fontSize=22;fontColor=#12AAB5;align=center;fontStyle=1;" parent="1" vertex="1">
          <mxGeometry x="780" y="430" width="100" height="100" as="geometry" />
        </mxCell>
        <mxCell id="SWVw84wdwCniEMFFV5wz-59" value="Label" style="verticalLabelPosition=middle;verticalAlign=middle;html=1;html=1;fillColor=none;strokeColor=none;fontSize=15;fontColor=#10739E;align=center;fontStyle=1;" parent="1" vertex="1">
          <mxGeometry x="-20" y="400" width="100" height="30" as="geometry" />
        </mxCell>
        <mxCell id="SWVw84wdwCniEMFFV5wz-60" value="Label" style="verticalLabelPosition=middle;verticalAlign=middle;html=1;html=1;fillColor=none;strokeColor=none;fontSize=15;fontColor=#F2931E;align=center;fontStyle=1;" parent="1" vertex="1">
          <mxGeometry x="190" y="400" width="100" height="30" as="geometry" />
        </mxCell>
        <mxCell id="SWVw84wdwCniEMFFV5wz-61" value="Label" style="verticalLabelPosition=middle;verticalAlign=middle;html=1;html=1;fillColor=none;strokeColor=none;fontSize=15;fontColor=#AE4132;align=center;fontStyle=1;" parent="1" vertex="1">
          <mxGeometry x="380" y="400" width="100" height="30" as="geometry" />
        </mxCell>
        <mxCell id="SWVw84wdwCniEMFFV5wz-62" value="Label" style="verticalLabelPosition=middle;verticalAlign=middle;html=1;html=1;fillColor=none;strokeColor=none;fontSize=15;fontColor=#23445D;align=center;fontStyle=1;" parent="1" vertex="1">
          <mxGeometry x="590" y="400" width="100" height="30" as="geometry" />
        </mxCell>
        <mxCell id="SWVw84wdwCniEMFFV5wz-63" value="Label" style="verticalLabelPosition=middle;verticalAlign=middle;html=1;html=1;fillColor=none;strokeColor=none;fontSize=15;fontColor=#12AAB5;align=center;fontStyle=1;" parent="1" vertex="1">
          <mxGeometry x="780" y="400" width="100" height="30" as="geometry" />
        </mxCell>
        <mxCell id="SWVw84wdwCniEMFFV5wz-64" value="&lt;font style=&quot;font-size: 12px&quot;&gt;Note:&lt;/font&gt;" style="verticalLabelPosition=middle;verticalAlign=middle;html=1;html=1;fillColor=#EEEEEE;strokeColor=none;fontSize=10;align=left;fontStyle=0;rounded=1;whiteSpace=wrap;arcSize=8;spacing=5;" parent="1" vertex="1">
          <mxGeometry x="-20" y="540" width="100" height="30" as="geometry" />
        </mxCell>
        <mxCell id="SWVw84wdwCniEMFFV5wz-70" value="Task&amp;nbsp;" style="html=1;shape=mxgraph.infographic.ribbonSimple;notch1=20;notch2=20;fillColor=#10739E;strokeColor=none;align=center;verticalAlign=middle;fontColor=#ffffff;fontSize=14;fontStyle=1;" parent="1" vertex="1">
          <mxGeometry x="-230" y="767.5" width="150" height="95" as="geometry" />
        </mxCell>
        <mxCell id="SWVw84wdwCniEMFFV5wz-71" value="Parmary&lt;br&gt;Object" style="html=1;shape=mxgraph.infographic.ribbonSimple;notch1=20;notch2=20;fillColor=#10739E;strokeColor=none;align=center;verticalAlign=middle;fontColor=#ffffff;fontSize=14;fontStyle=1;" parent="1" vertex="1">
          <mxGeometry x="-230" y="637.5" width="150" height="95" as="geometry" />
        </mxCell>
        <mxCell id="SWVw84wdwCniEMFFV5wz-72" value="Delivery&amp;nbsp;&lt;br&gt;Feedback" style="html=1;shape=mxgraph.infographic.ribbonSimple;notch1=20;notch2=20;fillColor=#10739E;strokeColor=none;align=center;verticalAlign=middle;fontColor=#ffffff;fontSize=14;fontStyle=1;" parent="1" vertex="1">
          <mxGeometry x="-230" y="897.5" width="150" height="95" as="geometry" />
        </mxCell>
        <mxCell id="SWVw84wdwCniEMFFV5wz-73" value="&lt;font style=&quot;font-size: 12px&quot;&gt;Note:&lt;/font&gt;" style="verticalLabelPosition=middle;verticalAlign=middle;html=1;html=1;fillColor=#EEEEEE;strokeColor=none;fontSize=10;align=left;fontStyle=0;rounded=1;whiteSpace=wrap;arcSize=8;spacing=5;" parent="1" vertex="1">
          <mxGeometry x="190" y="540" width="100" height="30" as="geometry" />
        </mxCell>
        <mxCell id="SWVw84wdwCniEMFFV5wz-74" value="&lt;font style=&quot;font-size: 12px&quot;&gt;Note:&lt;/font&gt;" style="verticalLabelPosition=middle;verticalAlign=middle;html=1;html=1;fillColor=#EEEEEE;strokeColor=none;fontSize=10;align=left;fontStyle=0;rounded=1;whiteSpace=wrap;arcSize=8;spacing=5;" parent="1" vertex="1">
          <mxGeometry x="380" y="540" width="100" height="30" as="geometry" />
        </mxCell>
        <mxCell id="SWVw84wdwCniEMFFV5wz-75" value="&lt;font style=&quot;font-size: 12px&quot;&gt;Note:&lt;/font&gt;" style="verticalLabelPosition=middle;verticalAlign=middle;html=1;html=1;fillColor=#EEEEEE;strokeColor=none;fontSize=10;align=left;fontStyle=0;rounded=1;whiteSpace=wrap;arcSize=8;spacing=5;" parent="1" vertex="1">
          <mxGeometry x="590" y="540" width="100" height="30" as="geometry" />
        </mxCell>
        <mxCell id="SWVw84wdwCniEMFFV5wz-76" value="&lt;font style=&quot;font-size: 12px&quot;&gt;Note:&lt;/font&gt;" style="verticalLabelPosition=middle;verticalAlign=middle;html=1;html=1;fillColor=#EEEEEE;strokeColor=none;fontSize=10;align=left;fontStyle=0;rounded=1;whiteSpace=wrap;arcSize=8;spacing=5;" parent="1" vertex="1">
          <mxGeometry x="780" y="540" width="100" height="30" as="geometry" />
        </mxCell>
      </root>
    </mxGraphModel>
  </diagram>
  <diagram id="8JSRM6W8lotBCDbfVNMZ" name="Database">
    <mxGraphModel dx="946" dy="645" grid="1" gridSize="10" guides="1" tooltips="1" connect="1" arrows="1" fold="1" page="1" pageScale="1" pageWidth="827" pageHeight="1169" math="0" shadow="0">
      <root>
        <mxCell id="I0Dho2xR7QrMux0bxS7d-0" />
        <mxCell id="I0Dho2xR7QrMux0bxS7d-1" parent="I0Dho2xR7QrMux0bxS7d-0" />
        <mxCell id="I0Dho2xR7QrMux0bxS7d-10" value="Cyber Range" style="swimlane;fontSize=12;" parent="I0Dho2xR7QrMux0bxS7d-1" vertex="1">
          <mxGeometry x="110" y="220" width="630" height="310" as="geometry" />
        </mxCell>
        <mxCell id="I0Dho2xR7QrMux0bxS7d-2" value="Student" style="swimlane;fontStyle=0;childLayout=stackLayout;horizontal=1;startSize=30;horizontalStack=0;resizeParent=1;resizeParentMax=0;resizeLast=0;collapsible=1;marginBottom=0;fontSize=12;" parent="I0Dho2xR7QrMux0bxS7d-10" vertex="1">
          <mxGeometry x="450" y="80" width="140" height="120" as="geometry" />
        </mxCell>
        <mxCell id="I0Dho2xR7QrMux0bxS7d-3" value="172.17.1.X" style="text;strokeColor=none;fillColor=none;align=left;verticalAlign=middle;spacingLeft=4;spacingRight=4;overflow=hidden;points=[[0,0.5],[1,0.5]];portConstraint=eastwest;rotatable=0;fontSize=12;" parent="I0Dho2xR7QrMux0bxS7d-2" vertex="1">
          <mxGeometry y="30" width="140" height="30" as="geometry" />
        </mxCell>
        <mxCell id="I0Dho2xR7QrMux0bxS7d-4" value="Item 2" style="text;strokeColor=none;fillColor=none;align=left;verticalAlign=middle;spacingLeft=4;spacingRight=4;overflow=hidden;points=[[0,0.5],[1,0.5]];portConstraint=eastwest;rotatable=0;fontSize=12;" parent="I0Dho2xR7QrMux0bxS7d-2" vertex="1">
          <mxGeometry y="60" width="140" height="30" as="geometry" />
        </mxCell>
        <mxCell id="I0Dho2xR7QrMux0bxS7d-5" value="Item 3" style="text;strokeColor=none;fillColor=none;align=left;verticalAlign=middle;spacingLeft=4;spacingRight=4;overflow=hidden;points=[[0,0.5],[1,0.5]];portConstraint=eastwest;rotatable=0;fontSize=12;" parent="I0Dho2xR7QrMux0bxS7d-2" vertex="1">
          <mxGeometry y="90" width="140" height="30" as="geometry" />
        </mxCell>
        <mxCell id="I0Dho2xR7QrMux0bxS7d-6" value="SubNet" style="swimlane;fontStyle=0;childLayout=stackLayout;horizontal=1;startSize=30;horizontalStack=0;resizeParent=1;resizeParentMax=0;resizeLast=0;collapsible=1;marginBottom=0;fontSize=12;" parent="I0Dho2xR7QrMux0bxS7d-10" vertex="1">
          <mxGeometry x="240" y="80" width="140" height="120" as="geometry" />
        </mxCell>
        <mxCell id="I0Dho2xR7QrMux0bxS7d-7" value="172.17.X.X" style="text;strokeColor=none;fillColor=none;align=left;verticalAlign=middle;spacingLeft=4;spacingRight=4;overflow=hidden;points=[[0,0.5],[1,0.5]];portConstraint=eastwest;rotatable=0;fontSize=12;" parent="I0Dho2xR7QrMux0bxS7d-6" vertex="1">
          <mxGeometry y="30" width="140" height="30" as="geometry" />
        </mxCell>
        <mxCell id="I0Dho2xR7QrMux0bxS7d-8" value="Item 2" style="text;strokeColor=none;fillColor=none;align=left;verticalAlign=middle;spacingLeft=4;spacingRight=4;overflow=hidden;points=[[0,0.5],[1,0.5]];portConstraint=eastwest;rotatable=0;fontSize=12;" parent="I0Dho2xR7QrMux0bxS7d-6" vertex="1">
          <mxGeometry y="60" width="140" height="30" as="geometry" />
        </mxCell>
        <mxCell id="I0Dho2xR7QrMux0bxS7d-9" value="Item 3" style="text;strokeColor=none;fillColor=none;align=left;verticalAlign=middle;spacingLeft=4;spacingRight=4;overflow=hidden;points=[[0,0.5],[1,0.5]];portConstraint=eastwest;rotatable=0;fontSize=12;" parent="I0Dho2xR7QrMux0bxS7d-6" vertex="1">
          <mxGeometry y="90" width="140" height="30" as="geometry" />
        </mxCell>
        <mxCell id="I0Dho2xR7QrMux0bxS7d-16" style="edgeStyle=orthogonalEdgeStyle;rounded=0;orthogonalLoop=1;jettySize=auto;html=1;entryX=0;entryY=0.5;entryDx=0;entryDy=0;fontSize=12;startArrow=ERzeroToOne;startFill=0;endArrow=ERzeroToOne;endFill=0;" parent="I0Dho2xR7QrMux0bxS7d-10" source="I0Dho2xR7QrMux0bxS7d-8" target="I0Dho2xR7QrMux0bxS7d-4" edge="1">
          <mxGeometry relative="1" as="geometry" />
        </mxCell>
        <mxCell id="I0Dho2xR7QrMux0bxS7d-11" value="Course" style="swimlane;fontStyle=0;childLayout=stackLayout;horizontal=1;startSize=30;horizontalStack=0;resizeParent=1;resizeParentMax=0;resizeLast=0;collapsible=1;marginBottom=0;fontSize=12;" parent="I0Dho2xR7QrMux0bxS7d-1" vertex="1">
          <mxGeometry x="150" y="300" width="140" height="120" as="geometry" />
        </mxCell>
        <mxCell id="I0Dho2xR7QrMux0bxS7d-12" value="172.X.X.X" style="text;strokeColor=none;fillColor=none;align=left;verticalAlign=middle;spacingLeft=4;spacingRight=4;overflow=hidden;points=[[0,0.5],[1,0.5]];portConstraint=eastwest;rotatable=0;fontSize=12;" parent="I0Dho2xR7QrMux0bxS7d-11" vertex="1">
          <mxGeometry y="30" width="140" height="30" as="geometry" />
        </mxCell>
        <mxCell id="I0Dho2xR7QrMux0bxS7d-13" value="Item 2" style="text;strokeColor=none;fillColor=none;align=left;verticalAlign=middle;spacingLeft=4;spacingRight=4;overflow=hidden;points=[[0,0.5],[1,0.5]];portConstraint=eastwest;rotatable=0;fontSize=12;" parent="I0Dho2xR7QrMux0bxS7d-11" vertex="1">
          <mxGeometry y="60" width="140" height="30" as="geometry" />
        </mxCell>
        <mxCell id="I0Dho2xR7QrMux0bxS7d-14" value="Item 3" style="text;strokeColor=none;fillColor=none;align=left;verticalAlign=middle;spacingLeft=4;spacingRight=4;overflow=hidden;points=[[0,0.5],[1,0.5]];portConstraint=eastwest;rotatable=0;fontSize=12;" parent="I0Dho2xR7QrMux0bxS7d-11" vertex="1">
          <mxGeometry y="90" width="140" height="30" as="geometry" />
        </mxCell>
        <mxCell id="I0Dho2xR7QrMux0bxS7d-15" style="edgeStyle=orthogonalEdgeStyle;rounded=0;orthogonalLoop=1;jettySize=auto;html=1;entryX=0;entryY=0.5;entryDx=0;entryDy=0;fontSize=12;startArrow=ERzeroToOne;startFill=0;endArrow=ERzeroToMany;endFill=0;" parent="I0Dho2xR7QrMux0bxS7d-1" source="I0Dho2xR7QrMux0bxS7d-13" target="I0Dho2xR7QrMux0bxS7d-8" edge="1">
          <mxGeometry relative="1" as="geometry" />
        </mxCell>
        <mxCell id="I0Dho2xR7QrMux0bxS7d-17" style="edgeStyle=orthogonalEdgeStyle;rounded=0;orthogonalLoop=1;jettySize=auto;html=1;entryX=0.443;entryY=1.1;entryDx=0;entryDy=0;entryPerimeter=0;fontSize=12;endArrow=ERoneToMany;endFill=0;startArrow=ERoneToMany;startFill=0;" parent="I0Dho2xR7QrMux0bxS7d-1" source="I0Dho2xR7QrMux0bxS7d-2" target="I0Dho2xR7QrMux0bxS7d-14" edge="1">
          <mxGeometry relative="1" as="geometry">
            <Array as="points">
              <mxPoint x="630" y="480" />
              <mxPoint x="212" y="480" />
            </Array>
          </mxGeometry>
        </mxCell>
        <mxCell id="CiT_RtoVXKDHox-EZ2O--0" value="Enroll" style="edgeLabel;html=1;align=center;verticalAlign=middle;resizable=0;points=[];" vertex="1" connectable="0" parent="I0Dho2xR7QrMux0bxS7d-17">
          <mxGeometry x="0.0729" y="4" relative="1" as="geometry">
            <mxPoint as="offset" />
          </mxGeometry>
        </mxCell>
      </root>
    </mxGraphModel>
  </diagram>
  <diagram id="ATELqk3S1iY6gtpUKytL" name="Requirement">
    <mxGraphModel dx="1773" dy="645" grid="1" gridSize="10" guides="1" tooltips="1" connect="1" arrows="1" fold="1" page="1" pageScale="1" pageWidth="827" pageHeight="1169" math="0" shadow="0">
      <root>
        <mxCell id="BgavjCjCeQE0ryiQORCU-0" />
        <mxCell id="BgavjCjCeQE0ryiQORCU-1" parent="BgavjCjCeQE0ryiQORCU-0" />
        <mxCell id="BgavjCjCeQE0ryiQORCU-4" value="" style="edgeStyle=orthogonalEdgeStyle;rounded=0;orthogonalLoop=1;jettySize=auto;html=1;fontSize=12;" parent="BgavjCjCeQE0ryiQORCU-1" source="BgavjCjCeQE0ryiQORCU-2" target="BgavjCjCeQE0ryiQORCU-3" edge="1">
          <mxGeometry relative="1" as="geometry" />
        </mxCell>
        <mxCell id="BgavjCjCeQE0ryiQORCU-13" style="edgeStyle=orthogonalEdgeStyle;rounded=0;orthogonalLoop=1;jettySize=auto;html=1;entryX=0;entryY=0.5;entryDx=0;entryDy=0;fontSize=12;" parent="BgavjCjCeQE0ryiQORCU-1" source="BgavjCjCeQE0ryiQORCU-2" target="BgavjCjCeQE0ryiQORCU-10" edge="1">
          <mxGeometry relative="1" as="geometry" />
        </mxCell>
        <mxCell id="BgavjCjCeQE0ryiQORCU-2" value="upload databse" style="rounded=0;whiteSpace=wrap;html=1;fontSize=12;" parent="BgavjCjCeQE0ryiQORCU-1" vertex="1">
          <mxGeometry x="180" y="200" width="120" height="60" as="geometry" />
        </mxCell>
        <mxCell id="BgavjCjCeQE0ryiQORCU-15" style="edgeStyle=orthogonalEdgeStyle;rounded=0;orthogonalLoop=1;jettySize=auto;html=1;entryX=0;entryY=0.5;entryDx=0;entryDy=0;fontSize=12;" parent="BgavjCjCeQE0ryiQORCU-1" source="BgavjCjCeQE0ryiQORCU-3" target="BgavjCjCeQE0ryiQORCU-14" edge="1">
          <mxGeometry relative="1" as="geometry" />
        </mxCell>
        <mxCell id="BgavjCjCeQE0ryiQORCU-8" value="" style="edgeStyle=orthogonalEdgeStyle;rounded=0;orthogonalLoop=1;jettySize=auto;html=1;fontSize=12;" parent="BgavjCjCeQE0ryiQORCU-1" source="BgavjCjCeQE0ryiQORCU-7" target="BgavjCjCeQE0ryiQORCU-2" edge="1">
          <mxGeometry relative="1" as="geometry" />
        </mxCell>
        <mxCell id="BgavjCjCeQE0ryiQORCU-7" value="Install Software" style="rounded=0;whiteSpace=wrap;html=1;fontSize=12;fillColor=#d5e8d4;strokeColor=#82b366;" parent="BgavjCjCeQE0ryiQORCU-1" vertex="1">
          <mxGeometry y="200" width="120" height="60" as="geometry" />
        </mxCell>
        <mxCell id="BgavjCjCeQE0ryiQORCU-11" style="edgeStyle=orthogonalEdgeStyle;rounded=0;orthogonalLoop=1;jettySize=auto;html=1;entryX=0.5;entryY=0;entryDx=0;entryDy=0;fontSize=12;" parent="BgavjCjCeQE0ryiQORCU-1" source="BgavjCjCeQE0ryiQORCU-10" target="BgavjCjCeQE0ryiQORCU-3" edge="1">
          <mxGeometry relative="1" as="geometry">
            <Array as="points">
              <mxPoint x="420" y="110" />
            </Array>
          </mxGeometry>
        </mxCell>
        <mxCell id="BgavjCjCeQE0ryiQORCU-10" value="old and new databse" style="shape=document;whiteSpace=wrap;html=1;boundedLbl=1;fontSize=12;" parent="BgavjCjCeQE0ryiQORCU-1" vertex="1">
          <mxGeometry x="280" y="80" width="120" height="60" as="geometry" />
        </mxCell>
        <mxCell id="BgavjCjCeQE0ryiQORCU-14" value="output new Database" style="rounded=0;whiteSpace=wrap;html=1;fontSize=12;" parent="BgavjCjCeQE0ryiQORCU-1" vertex="1">
          <mxGeometry x="520" y="200" width="120" height="60" as="geometry" />
        </mxCell>
        <mxCell id="1KL_BrZlrNyv6cS1wxAE-0" value="Search Student information by Key word" style="rounded=0;whiteSpace=wrap;html=1;fontSize=12;" parent="BgavjCjCeQE0ryiQORCU-1" vertex="1">
          <mxGeometry x="360" y="440" width="120" height="60" as="geometry" />
        </mxCell>
        <mxCell id="1KL_BrZlrNyv6cS1wxAE-1" value="Display &amp;nbsp;statistics report" style="rounded=0;whiteSpace=wrap;html=1;fontSize=12;" parent="BgavjCjCeQE0ryiQORCU-1" vertex="1">
          <mxGeometry x="520" y="280" width="120" height="60" as="geometry" />
        </mxCell>
        <mxCell id="h6aaKtWlKs_a2A0PWNE7-0" value="Modify the Database" style="rounded=0;whiteSpace=wrap;html=1;" vertex="1" parent="BgavjCjCeQE0ryiQORCU-1">
          <mxGeometry x="360" y="520" width="120" height="60" as="geometry" />
        </mxCell>
        <mxCell id="635FVv6ewYpFWvId1X9W-0" value="Non-Functional " style="swimlane;" vertex="1" parent="BgavjCjCeQE0ryiQORCU-1">
          <mxGeometry x="720" y="30" width="380" height="600" as="geometry" />
        </mxCell>
        <mxCell id="635FVv6ewYpFWvId1X9W-1" value="Highlight the matched key word" style="rounded=0;whiteSpace=wrap;html=1;" vertex="1" parent="635FVv6ewYpFWvId1X9W-0">
          <mxGeometry x="20" y="60" width="120" height="60" as="geometry" />
        </mxCell>
        <mxCell id="635FVv6ewYpFWvId1X9W-2" value="User Log in" style="rounded=0;whiteSpace=wrap;html=1;" vertex="1" parent="635FVv6ewYpFWvId1X9W-0">
          <mxGeometry x="20" y="140" width="120" height="60" as="geometry" />
        </mxCell>
        <mxCell id="WpLPOjO1zjARb18YPuWg-0" value="Error message" style="rounded=0;whiteSpace=wrap;html=1;" vertex="1" parent="635FVv6ewYpFWvId1X9W-0">
          <mxGeometry x="20" y="220" width="120" height="60" as="geometry" />
        </mxCell>
        <mxCell id="WpLPOjO1zjARb18YPuWg-1" value="Modify confirmation message" style="rounded=0;whiteSpace=wrap;html=1;" vertex="1" parent="635FVv6ewYpFWvId1X9W-0">
          <mxGeometry x="20" y="300" width="120" height="60" as="geometry" />
        </mxCell>
        <mxCell id="h0Y9qpYt6W2PzzpY1FDF-0" value="Display full student Information" style="rounded=0;whiteSpace=wrap;html=1;" vertex="1" parent="635FVv6ewYpFWvId1X9W-0">
          <mxGeometry x="20" y="380" width="120" height="60" as="geometry" />
        </mxCell>
        <mxCell id="KiFmlnmmI92PAN9z10ap-6" value="Functional requirements" style="swimlane;" vertex="1" parent="BgavjCjCeQE0ryiQORCU-1">
          <mxGeometry x="-30" y="30" width="730" height="600" as="geometry" />
        </mxCell>
        <mxCell id="CG_lc4gguiDd-eUMjHJF-0" value="" style="rounded=0;whiteSpace=wrap;html=1;opacity=20;fillColor=#FF3333;" vertex="1" parent="KiFmlnmmI92PAN9z10ap-6">
          <mxGeometry x="370" y="160" width="160" height="240" as="geometry" />
        </mxCell>
        <mxCell id="BgavjCjCeQE0ryiQORCU-3" value="Check withdrawn student" style="rounded=0;whiteSpace=wrap;html=1;fontSize=12;" parent="BgavjCjCeQE0ryiQORCU-1" vertex="1">
          <mxGeometry x="360" y="200" width="120" height="60" as="geometry" />
        </mxCell>
        <mxCell id="BgavjCjCeQE0ryiQORCU-5" value="Check unassigned Network" style="rounded=0;whiteSpace=wrap;html=1;fontSize=12;" parent="BgavjCjCeQE0ryiQORCU-1" vertex="1">
          <mxGeometry x="360" y="280" width="120" height="60" as="geometry" />
        </mxCell>
        <mxCell id="BgavjCjCeQE0ryiQORCU-6" value="Check new enrolled Student" style="rounded=0;whiteSpace=wrap;html=1;fontSize=12;" parent="BgavjCjCeQE0ryiQORCU-1" vertex="1">
          <mxGeometry x="360" y="360" width="120" height="60" as="geometry" />
        </mxCell>
      </root>
    </mxGraphModel>
  </diagram>
  <diagram id="qTsC7cw7xi8D36_ifWba" name="UI Design">
    <mxGraphModel dx="1940" dy="759" grid="1" gridSize="10" guides="1" tooltips="1" connect="1" arrows="1" fold="1" page="1" pageScale="1" pageWidth="827" pageHeight="1169" math="0" shadow="0">
      <root>
        <mxCell id="9fefTRs_4637ZHwM16R_-0" />
        <mxCell id="9fefTRs_4637ZHwM16R_-1" parent="9fefTRs_4637ZHwM16R_-0" />
        <mxCell id="UY7NqqL7Enu5Fr_ranoV-0" value="Cyber Range" style="strokeWidth=1;shadow=0;dashed=0;align=center;html=1;shape=mxgraph.mockup.containers.window;align=left;verticalAlign=top;spacingLeft=8;strokeColor2=#008cff;strokeColor3=#c4c4c4;fontColor=#666666;mainText=;fontSize=17;labelBackgroundColor=none;" parent="9fefTRs_4637ZHwM16R_-1" vertex="1">
          <mxGeometry y="80" width="820" height="480" as="geometry" />
        </mxCell>
        <mxCell id="9lWsJBTzMWUexnnbumZO-0" value="Search" style="strokeWidth=1;shadow=0;dashed=0;align=center;html=1;shape=mxgraph.mockup.forms.searchBox;strokeColor=#999999;mainText=;strokeColor2=#008cff;fontColor=#666666;fontSize=17;align=left;spacingLeft=3;" parent="9fefTRs_4637ZHwM16R_-1" vertex="1">
          <mxGeometry x="30" y="170" width="150" height="30" as="geometry" />
        </mxCell>
        <mxCell id="9lWsJBTzMWUexnnbumZO-1" value="" style="verticalLabelPosition=bottom;shadow=0;dashed=0;align=center;html=1;verticalAlign=top;strokeWidth=1;shape=mxgraph.mockup.forms.splitter;strokeColor=#999999;fontSize=12;" parent="9fefTRs_4637ZHwM16R_-1" vertex="1">
          <mxGeometry y="140" width="820" height="10" as="geometry" />
        </mxCell>
        <mxCell id="9lWsJBTzMWUexnnbumZO-2" value="" style="strokeWidth=1;shadow=0;dashed=0;align=center;html=1;shape=mxgraph.mockup.forms.rrect;rSize=0;strokeColor=#999999;fontSize=12;" parent="9fefTRs_4637ZHwM16R_-1" vertex="1">
          <mxGeometry y="110" width="498" height="30" as="geometry" />
        </mxCell>
        <mxCell id="9lWsJBTzMWUexnnbumZO-3" value="File" style="strokeColor=inherit;fillColor=inherit;gradientColor=inherit;strokeWidth=1;shadow=0;dashed=0;align=center;html=1;shape=mxgraph.mockup.forms.rrect;rSize=0;fontSize=17;fontColor=#666666;" parent="9lWsJBTzMWUexnnbumZO-2" vertex="1">
          <mxGeometry width="83" height="30" as="geometry" />
        </mxCell>
        <mxCell id="9lWsJBTzMWUexnnbumZO-4" value="Edit" style="strokeColor=inherit;fillColor=inherit;gradientColor=inherit;strokeWidth=1;shadow=0;dashed=0;align=center;html=1;shape=mxgraph.mockup.forms.rrect;rSize=0;fontSize=17;fontColor=#666666;" parent="9lWsJBTzMWUexnnbumZO-2" vertex="1">
          <mxGeometry x="83" width="83" height="30" as="geometry" />
        </mxCell>
        <mxCell id="9lWsJBTzMWUexnnbumZO-5" value="Options" style="strokeColor=inherit;fillColor=inherit;gradientColor=inherit;strokeWidth=1;shadow=0;dashed=0;align=center;html=1;shape=mxgraph.mockup.forms.rrect;rSize=0;fontSize=17;fontColor=#666666;" parent="9lWsJBTzMWUexnnbumZO-2" vertex="1">
          <mxGeometry x="166" width="83" height="30" as="geometry" />
        </mxCell>
        <mxCell id="9lWsJBTzMWUexnnbumZO-6" value="Tools" style="strokeColor=inherit;fillColor=inherit;gradientColor=inherit;strokeWidth=1;shadow=0;dashed=0;align=center;html=1;shape=mxgraph.mockup.forms.rrect;rSize=0;fontSize=17;fontColor=#666666;" parent="9lWsJBTzMWUexnnbumZO-2" vertex="1">
          <mxGeometry x="249" width="83" height="30" as="geometry" />
        </mxCell>
        <mxCell id="9lWsJBTzMWUexnnbumZO-7" value="Window" style="strokeColor=inherit;fillColor=inherit;gradientColor=inherit;strokeWidth=1;shadow=0;dashed=0;align=center;html=1;shape=mxgraph.mockup.forms.rrect;rSize=0;fontSize=17;fontColor=#666666;" parent="9lWsJBTzMWUexnnbumZO-2" vertex="1">
          <mxGeometry x="332" width="83" height="30" as="geometry" />
        </mxCell>
        <mxCell id="9lWsJBTzMWUexnnbumZO-8" value="Help" style="strokeColor=inherit;fillColor=inherit;gradientColor=inherit;strokeWidth=1;shadow=0;dashed=0;align=center;html=1;shape=mxgraph.mockup.forms.rrect;rSize=0;fontSize=17;fontColor=#666666;" parent="9lWsJBTzMWUexnnbumZO-2" vertex="1">
          <mxGeometry x="415" width="83" height="30" as="geometry" />
        </mxCell>
        <mxCell id="9lWsJBTzMWUexnnbumZO-11" value="" style="strokeWidth=1;shadow=0;dashed=0;align=center;html=1;shape=mxgraph.mockup.forms.rrect;rSize=0;strokeColor=#999999;fillColor=#ffffff;fontSize=12;" parent="9fefTRs_4637ZHwM16R_-1" vertex="1">
          <mxGeometry x="310" y="160" width="120" height="400" as="geometry" />
        </mxCell>
        <mxCell id="9lWsJBTzMWUexnnbumZO-12" value="First Name" style="strokeWidth=1;shadow=0;dashed=0;align=center;html=1;shape=mxgraph.mockup.forms.rrect;rSize=0;strokeColor=#999999;fontColor=#008cff;fontSize=17;fillColor=#ffffff;resizeWidth=1;" parent="9lWsJBTzMWUexnnbumZO-11" vertex="1">
          <mxGeometry width="120" height="30" relative="1" as="geometry" />
        </mxCell>
        <mxCell id="9lWsJBTzMWUexnnbumZO-13" value="Ben" style="strokeWidth=1;shadow=0;dashed=0;align=center;html=1;shape=mxgraph.mockup.forms.anchor;fontSize=17;fontColor=#666666;align=left;spacingLeft=5;resizeWidth=1;" parent="9lWsJBTzMWUexnnbumZO-11" vertex="1">
          <mxGeometry width="120" height="20" relative="1" as="geometry">
            <mxPoint y="30" as="offset" />
          </mxGeometry>
        </mxCell>
        <mxCell id="9lWsJBTzMWUexnnbumZO-14" value="Tim" style="strokeWidth=1;shadow=0;dashed=0;align=center;html=1;shape=mxgraph.mockup.forms.anchor;fontSize=17;fontColor=#666666;align=left;spacingLeft=5;resizeWidth=1;" parent="9lWsJBTzMWUexnnbumZO-11" vertex="1">
          <mxGeometry width="120" height="20" relative="1" as="geometry">
            <mxPoint y="50" as="offset" />
          </mxGeometry>
        </mxCell>
        <mxCell id="9lWsJBTzMWUexnnbumZO-15" value="Bob" style="strokeWidth=1;shadow=0;dashed=0;align=center;html=1;shape=mxgraph.mockup.forms.rrect;rSize=0;fontSize=17;fontColor=#666666;align=left;spacingLeft=5;fillColor=#ddeeff;strokeColor=none;resizeWidth=1;" parent="9lWsJBTzMWUexnnbumZO-11" vertex="1">
          <mxGeometry width="120" height="20" relative="1" as="geometry">
            <mxPoint y="70" as="offset" />
          </mxGeometry>
        </mxCell>
        <mxCell id="9lWsJBTzMWUexnnbumZO-16" value="Aaron" style="strokeWidth=1;shadow=0;dashed=0;align=center;html=1;shape=mxgraph.mockup.forms.anchor;fontSize=17;fontColor=#666666;align=left;spacingLeft=5;resizeWidth=1;" parent="9lWsJBTzMWUexnnbumZO-11" vertex="1">
          <mxGeometry width="120" height="20" relative="1" as="geometry">
            <mxPoint y="90" as="offset" />
          </mxGeometry>
        </mxCell>
        <mxCell id="9lWsJBTzMWUexnnbumZO-17" value="" style="strokeWidth=1;shadow=0;dashed=0;align=center;html=1;shape=mxgraph.mockup.forms.rrect;rSize=0;strokeColor=#999999;fillColor=#ffffff;fontSize=12;" parent="9fefTRs_4637ZHwM16R_-1" vertex="1">
          <mxGeometry x="430" y="160" width="120" height="400" as="geometry" />
        </mxCell>
        <mxCell id="9lWsJBTzMWUexnnbumZO-18" value="Last Name" style="strokeWidth=1;shadow=0;dashed=0;align=center;html=1;shape=mxgraph.mockup.forms.rrect;rSize=0;strokeColor=#999999;fontColor=#008cff;fontSize=17;fillColor=#ffffff;resizeWidth=1;" parent="9lWsJBTzMWUexnnbumZO-17" vertex="1">
          <mxGeometry width="120" height="30" relative="1" as="geometry" />
        </mxCell>
        <mxCell id="9lWsJBTzMWUexnnbumZO-19" value="Li" style="strokeWidth=1;shadow=0;dashed=0;align=center;html=1;shape=mxgraph.mockup.forms.anchor;fontSize=17;fontColor=#666666;align=left;spacingLeft=5;resizeWidth=1;" parent="9lWsJBTzMWUexnnbumZO-17" vertex="1">
          <mxGeometry width="120" height="20" relative="1" as="geometry">
            <mxPoint y="30" as="offset" />
          </mxGeometry>
        </mxCell>
        <mxCell id="9lWsJBTzMWUexnnbumZO-20" value="Li" style="strokeWidth=1;shadow=0;dashed=0;align=center;html=1;shape=mxgraph.mockup.forms.anchor;fontSize=17;fontColor=#666666;align=left;spacingLeft=5;resizeWidth=1;" parent="9lWsJBTzMWUexnnbumZO-17" vertex="1">
          <mxGeometry width="120" height="20" relative="1" as="geometry">
            <mxPoint y="50" as="offset" />
          </mxGeometry>
        </mxCell>
        <mxCell id="9lWsJBTzMWUexnnbumZO-21" value="Li" style="strokeWidth=1;shadow=0;dashed=0;align=center;html=1;shape=mxgraph.mockup.forms.rrect;rSize=0;fontSize=17;fontColor=#666666;align=left;spacingLeft=5;fillColor=#ddeeff;strokeColor=none;resizeWidth=1;" parent="9lWsJBTzMWUexnnbumZO-17" vertex="1">
          <mxGeometry width="120" height="20" relative="1" as="geometry">
            <mxPoint y="70" as="offset" />
          </mxGeometry>
        </mxCell>
        <mxCell id="9lWsJBTzMWUexnnbumZO-22" value="Li" style="strokeWidth=1;shadow=0;dashed=0;align=center;html=1;shape=mxgraph.mockup.forms.anchor;fontSize=17;fontColor=#666666;align=left;spacingLeft=5;resizeWidth=1;fillColor=#FF6B6B;" parent="9lWsJBTzMWUexnnbumZO-17" vertex="1">
          <mxGeometry width="120" height="20" relative="1" as="geometry">
            <mxPoint y="90" as="offset" />
          </mxGeometry>
        </mxCell>
        <mxCell id="9lWsJBTzMWUexnnbumZO-23" value="" style="strokeWidth=1;shadow=0;dashed=0;align=center;html=1;shape=mxgraph.mockup.forms.rrect;rSize=0;strokeColor=#999999;fillColor=#ffffff;fontSize=12;" parent="9fefTRs_4637ZHwM16R_-1" vertex="1">
          <mxGeometry x="670" y="160" width="120" height="400" as="geometry" />
        </mxCell>
        <mxCell id="9lWsJBTzMWUexnnbumZO-24" value="Sub-Network" style="strokeWidth=1;shadow=0;dashed=0;align=center;html=1;shape=mxgraph.mockup.forms.rrect;rSize=0;strokeColor=#999999;fontColor=#008cff;fontSize=17;fillColor=#ffffff;resizeWidth=1;" parent="9lWsJBTzMWUexnnbumZO-23" vertex="1">
          <mxGeometry width="120" height="30" relative="1" as="geometry" />
        </mxCell>
        <mxCell id="9lWsJBTzMWUexnnbumZO-25" value="172.17.2.1" style="strokeWidth=1;shadow=0;dashed=0;align=center;html=1;shape=mxgraph.mockup.forms.anchor;fontSize=17;fontColor=#666666;align=left;spacingLeft=5;resizeWidth=1;" parent="9lWsJBTzMWUexnnbumZO-23" vertex="1">
          <mxGeometry width="120" height="20" relative="1" as="geometry">
            <mxPoint y="30" as="offset" />
          </mxGeometry>
        </mxCell>
        <mxCell id="9lWsJBTzMWUexnnbumZO-26" value="172.28.125.1" style="strokeWidth=1;shadow=0;dashed=0;align=center;html=1;shape=mxgraph.mockup.forms.anchor;fontSize=17;fontColor=#666666;align=left;spacingLeft=5;resizeWidth=1;" parent="9lWsJBTzMWUexnnbumZO-23" vertex="1">
          <mxGeometry width="120" height="20" relative="1" as="geometry">
            <mxPoint y="50" as="offset" />
          </mxGeometry>
        </mxCell>
        <mxCell id="9lWsJBTzMWUexnnbumZO-27" value="N/A" style="strokeWidth=1;shadow=0;dashed=0;align=center;html=1;shape=mxgraph.mockup.forms.rrect;rSize=0;fontSize=17;fontColor=#666666;align=left;spacingLeft=5;fillColor=#ddeeff;strokeColor=none;resizeWidth=1;" parent="9lWsJBTzMWUexnnbumZO-23" vertex="1">
          <mxGeometry width="120" height="20" relative="1" as="geometry">
            <mxPoint y="70" as="offset" />
          </mxGeometry>
        </mxCell>
        <mxCell id="9lWsJBTzMWUexnnbumZO-28" value="172.30.121.1" style="strokeWidth=1;shadow=0;dashed=0;align=center;html=1;shape=mxgraph.mockup.forms.anchor;fontSize=17;fontColor=#666666;align=left;spacingLeft=5;resizeWidth=1;" parent="9lWsJBTzMWUexnnbumZO-23" vertex="1">
          <mxGeometry width="120" height="20" relative="1" as="geometry">
            <mxPoint y="90" as="offset" />
          </mxGeometry>
        </mxCell>
        <mxCell id="9lWsJBTzMWUexnnbumZO-29" value="" style="strokeWidth=1;shadow=0;dashed=0;align=center;html=1;shape=mxgraph.mockup.forms.rrect;rSize=0;strokeColor=#999999;fillColor=#ffffff;fontSize=12;" parent="9fefTRs_4637ZHwM16R_-1" vertex="1">
          <mxGeometry x="550" y="160" width="120" height="400" as="geometry" />
        </mxCell>
        <mxCell id="9lWsJBTzMWUexnnbumZO-30" value="Course" style="strokeWidth=1;shadow=0;dashed=0;align=center;html=1;shape=mxgraph.mockup.forms.rrect;rSize=0;strokeColor=#999999;fontColor=#008cff;fontSize=17;fillColor=#ffffff;resizeWidth=1;" parent="9lWsJBTzMWUexnnbumZO-29" vertex="1">
          <mxGeometry width="120" height="30" relative="1" as="geometry" />
        </mxCell>
        <mxCell id="9lWsJBTzMWUexnnbumZO-31" value="7501ICT" style="strokeWidth=1;shadow=0;dashed=0;align=center;html=1;shape=mxgraph.mockup.forms.anchor;fontSize=17;fontColor=#666666;align=left;spacingLeft=5;resizeWidth=1;" parent="9lWsJBTzMWUexnnbumZO-29" vertex="1">
          <mxGeometry width="120" height="20" relative="1" as="geometry">
            <mxPoint y="30" as="offset" />
          </mxGeometry>
        </mxCell>
        <mxCell id="9lWsJBTzMWUexnnbumZO-32" value="7807ICT" style="strokeWidth=1;shadow=0;dashed=0;align=center;html=1;shape=mxgraph.mockup.forms.anchor;fontSize=17;fontColor=#666666;align=left;spacingLeft=5;resizeWidth=1;" parent="9lWsJBTzMWUexnnbumZO-29" vertex="1">
          <mxGeometry width="120" height="20" relative="1" as="geometry">
            <mxPoint y="50" as="offset" />
          </mxGeometry>
        </mxCell>
        <mxCell id="9lWsJBTzMWUexnnbumZO-33" value="7502ICT" style="strokeWidth=1;shadow=0;dashed=0;align=center;html=1;shape=mxgraph.mockup.forms.rrect;rSize=0;fontSize=17;fontColor=#666666;align=left;spacingLeft=5;fillColor=#ddeeff;strokeColor=none;resizeWidth=1;" parent="9lWsJBTzMWUexnnbumZO-29" vertex="1">
          <mxGeometry width="120" height="20" relative="1" as="geometry">
            <mxPoint y="70" as="offset" />
          </mxGeometry>
        </mxCell>
        <mxCell id="9lWsJBTzMWUexnnbumZO-34" value="N/A" style="strokeWidth=1;shadow=0;dashed=0;align=center;html=1;shape=mxgraph.mockup.forms.anchor;fontSize=17;fontColor=#666666;align=left;spacingLeft=5;resizeWidth=1;fillColor=#FF6B6B;" parent="9lWsJBTzMWUexnnbumZO-29" vertex="1">
          <mxGeometry width="120" height="20" relative="1" as="geometry">
            <mxPoint y="90" as="offset" />
          </mxGeometry>
        </mxCell>
        <mxCell id="9lWsJBTzMWUexnnbumZO-35" value="" style="strokeWidth=1;shadow=0;dashed=0;align=center;html=1;shape=mxgraph.mockup.forms.rrect;rSize=0;strokeColor=#999999;fillColor=#ffffff;fontSize=12;" parent="9fefTRs_4637ZHwM16R_-1" vertex="1">
          <mxGeometry x="220" y="160" width="90" height="400" as="geometry" />
        </mxCell>
        <mxCell id="9lWsJBTzMWUexnnbumZO-36" value="Student ID" style="strokeWidth=1;shadow=0;dashed=0;align=center;html=1;shape=mxgraph.mockup.forms.rrect;rSize=0;strokeColor=#999999;fontColor=#008cff;fontSize=17;fillColor=#ffffff;resizeWidth=1;" parent="9lWsJBTzMWUexnnbumZO-35" vertex="1">
          <mxGeometry width="90" height="30" relative="1" as="geometry" />
        </mxCell>
        <mxCell id="9lWsJBTzMWUexnnbumZO-37" value="s1234567" style="strokeWidth=1;shadow=0;dashed=0;align=center;html=1;shape=mxgraph.mockup.forms.anchor;fontSize=17;fontColor=#666666;align=left;spacingLeft=5;resizeWidth=1;fillColor=#DDEEFF;" parent="9lWsJBTzMWUexnnbumZO-35" vertex="1">
          <mxGeometry width="90" height="20" relative="1" as="geometry">
            <mxPoint y="30" as="offset" />
          </mxGeometry>
        </mxCell>
        <mxCell id="9lWsJBTzMWUexnnbumZO-38" value="s2345678" style="strokeWidth=1;shadow=0;dashed=0;align=center;html=1;shape=mxgraph.mockup.forms.anchor;fontSize=17;fontColor=#666666;align=left;spacingLeft=5;resizeWidth=1;" parent="9lWsJBTzMWUexnnbumZO-35" vertex="1">
          <mxGeometry width="90" height="20" relative="1" as="geometry">
            <mxPoint y="50" as="offset" />
          </mxGeometry>
        </mxCell>
        <mxCell id="9lWsJBTzMWUexnnbumZO-39" value="s2345678" style="strokeWidth=1;shadow=0;dashed=0;align=center;html=1;shape=mxgraph.mockup.forms.rrect;rSize=0;fontSize=17;fontColor=#666666;align=left;spacingLeft=5;fillColor=#ddeeff;strokeColor=none;resizeWidth=1;" parent="9lWsJBTzMWUexnnbumZO-35" vertex="1">
          <mxGeometry width="90" height="20" relative="1" as="geometry">
            <mxPoint y="70" as="offset" />
          </mxGeometry>
        </mxCell>
        <mxCell id="9lWsJBTzMWUexnnbumZO-40" value="s2345678" style="strokeWidth=1;shadow=0;dashed=0;align=center;html=1;shape=mxgraph.mockup.forms.anchor;fontSize=17;fontColor=#666666;align=left;spacingLeft=5;resizeWidth=1;" parent="9lWsJBTzMWUexnnbumZO-35" vertex="1">
          <mxGeometry width="90" height="20" relative="1" as="geometry">
            <mxPoint y="90" as="offset" />
          </mxGeometry>
        </mxCell>
        <mxCell id="9lWsJBTzMWUexnnbumZO-101" value="" style="rounded=0;whiteSpace=wrap;html=1;fontSize=12;fillColor=#FF6B6B;opacity=20;" parent="9fefTRs_4637ZHwM16R_-1" vertex="1">
          <mxGeometry x="220" y="250" width="600" height="20" as="geometry" />
        </mxCell>
        <mxCell id="NIupROil3fTK5JVv10ii-6" value="" style="strokeWidth=1;shadow=0;dashed=0;align=center;html=1;shape=mxgraph.mockup.forms.rrect;rSize=0;strokeColor=#999999;fillColor=#ffffff;fontSize=12;" parent="9fefTRs_4637ZHwM16R_-1" vertex="1">
          <mxGeometry x="790" y="160" width="30" height="400" as="geometry" />
        </mxCell>
        <mxCell id="NIupROil3fTK5JVv10ii-7" value="N/A" style="strokeWidth=1;shadow=0;dashed=0;align=center;html=1;shape=mxgraph.mockup.forms.rrect;rSize=0;strokeColor=#999999;fontColor=#008cff;fontSize=17;fillColor=#ffffff;resizeWidth=1;" parent="NIupROil3fTK5JVv10ii-6" vertex="1">
          <mxGeometry width="30" height="30" relative="1" as="geometry" />
        </mxCell>
        <mxCell id="NIupROil3fTK5JVv10ii-8" value="" style="strokeWidth=1;shadow=0;dashed=0;align=center;html=1;shape=mxgraph.mockup.forms.anchor;fontSize=17;fontColor=#666666;align=left;spacingLeft=5;resizeWidth=1;" parent="NIupROil3fTK5JVv10ii-6" vertex="1">
          <mxGeometry width="30" height="20" relative="1" as="geometry">
            <mxPoint y="30" as="offset" />
          </mxGeometry>
        </mxCell>
        <mxCell id="NIupROil3fTK5JVv10ii-9" value="" style="strokeWidth=1;shadow=0;dashed=0;align=center;html=1;shape=mxgraph.mockup.forms.anchor;fontSize=17;fontColor=#666666;align=left;spacingLeft=5;resizeWidth=1;" parent="NIupROil3fTK5JVv10ii-6" vertex="1">
          <mxGeometry width="30" height="20" relative="1" as="geometry">
            <mxPoint y="50" as="offset" />
          </mxGeometry>
        </mxCell>
        <mxCell id="NIupROil3fTK5JVv10ii-10" value="O" style="strokeWidth=1;shadow=0;dashed=0;align=center;html=1;shape=mxgraph.mockup.forms.rrect;rSize=0;fontSize=17;fontColor=#666666;align=left;spacingLeft=5;fillColor=#ddeeff;strokeColor=none;resizeWidth=1;" parent="NIupROil3fTK5JVv10ii-6" vertex="1">
          <mxGeometry width="30" height="20" relative="1" as="geometry">
            <mxPoint y="70" as="offset" />
          </mxGeometry>
        </mxCell>
        <mxCell id="NIupROil3fTK5JVv10ii-11" value="" style="strokeWidth=1;shadow=0;dashed=0;align=center;html=1;shape=mxgraph.mockup.forms.anchor;fontSize=17;fontColor=#666666;align=left;spacingLeft=5;resizeWidth=1;" parent="NIupROil3fTK5JVv10ii-6" vertex="1">
          <mxGeometry width="30" height="20" relative="1" as="geometry">
            <mxPoint y="90" as="offset" />
          </mxGeometry>
        </mxCell>
        <mxCell id="pUqM2v-OFexOYLsavdP--0" value="" style="strokeWidth=1;shadow=0;dashed=0;align=center;html=1;shape=mxgraph.mockup.forms.rrect;rSize=0;strokeColor=#999999;fillColor=#ffffff;recursiveResize=0;" vertex="1" parent="9fefTRs_4637ZHwM16R_-1">
          <mxGeometry x="20" y="460" width="150" height="90" as="geometry" />
        </mxCell>
        <mxCell id="pUqM2v-OFexOYLsavdP--1" value="Trimester 1" style="strokeWidth=1;shadow=0;dashed=0;align=center;html=1;shape=mxgraph.mockup.forms.rrect;rSize=0;fillColor=#eeeeee;strokeColor=#999999;gradientColor=#cccccc;align=left;spacingLeft=4;fontSize=17;fontColor=#666666;labelPosition=right;" vertex="1" parent="pUqM2v-OFexOYLsavdP--0">
          <mxGeometry x="8" y="7.5" width="15" height="15" as="geometry" />
        </mxCell>
        <mxCell id="pUqM2v-OFexOYLsavdP--2" value="Trimester 2" style="strokeWidth=1;shadow=0;dashed=0;align=center;html=1;shape=mxgraph.mockup.forms.rrect;rSize=0;fillColor=#eeeeee;strokeColor=#999999;gradientColor=#cccccc;align=left;spacingLeft=4;fontSize=17;fontColor=#666666;labelPosition=right;" vertex="1" parent="pUqM2v-OFexOYLsavdP--0">
          <mxGeometry x="8" y="37.5" width="15" height="15" as="geometry" />
        </mxCell>
        <mxCell id="pUqM2v-OFexOYLsavdP--3" value="&lt;span style=&quot;color: rgb(102 , 102 , 102)&quot;&gt;Trimester 3&lt;/span&gt;" style="strokeWidth=1;shadow=0;dashed=0;align=center;html=1;shape=mxgraph.mockup.forms.checkbox;rSize=0;resizable=0;fillColor=#aaaaaa;strokeColor=#444444;gradientColor=#666666;align=left;spacingLeft=4;fontSize=17;fontColor=#008cff;labelPosition=right;" vertex="1" parent="pUqM2v-OFexOYLsavdP--0">
          <mxGeometry x="8" y="67.5" width="15" height="15" as="geometry" />
        </mxCell>
        <mxCell id="pUqM2v-OFexOYLsavdP--5" value="7808 ICT" style="strokeWidth=1;shadow=0;dashed=0;align=center;html=1;shape=mxgraph.mockup.forms.comboBox;strokeColor=#999999;fillColor=#ddeeff;align=left;fillColor2=#aaddff;mainText=;fontColor=#666666;fontSize=17;spacingLeft=3;" vertex="1" parent="9fefTRs_4637ZHwM16R_-1">
          <mxGeometry x="30" y="220" width="150" height="30" as="geometry" />
        </mxCell>
        <mxCell id="pUqM2v-OFexOYLsavdP--6" value="Upload&amp;nbsp;" style="strokeWidth=1;shadow=0;dashed=0;align=center;html=1;shape=mxgraph.mockup.containers.window;align=left;verticalAlign=top;spacingLeft=8;strokeColor2=#008cff;strokeColor3=#c4c4c4;fontColor=#666666;mainText=;fontSize=17;labelBackgroundColor=none;" vertex="1" parent="9fefTRs_4637ZHwM16R_-1">
          <mxGeometry x="-580" y="120" width="550" height="230" as="geometry" />
        </mxCell>
        <mxCell id="aLvDqRo2paLKl5vz0-2w-0" value="" style="strokeWidth=1;shadow=0;dashed=0;align=center;html=1;shape=mxgraph.mockup.forms.rrect;rSize=0;strokeColor=#999999;fillColor=#ffffff;recursiveResize=0;" vertex="1" parent="9fefTRs_4637ZHwM16R_-1">
          <mxGeometry x="40" y="250" width="110" height="120" as="geometry" />
        </mxCell>
        <mxCell id="aLvDqRo2paLKl5vz0-2w-6" value="All Course" style="rounded=0;whiteSpace=wrap;html=1;" vertex="1" parent="9fefTRs_4637ZHwM16R_-1">
          <mxGeometry x="40" y="250" width="110" height="30" as="geometry" />
        </mxCell>
        <mxCell id="aLvDqRo2paLKl5vz0-2w-7" value="7809 ICT" style="rounded=0;whiteSpace=wrap;html=1;" vertex="1" parent="9fefTRs_4637ZHwM16R_-1">
          <mxGeometry x="40" y="280" width="110" height="30" as="geometry" />
        </mxCell>
        <mxCell id="aLvDqRo2paLKl5vz0-2w-8" value="7502 ICT" style="rounded=0;whiteSpace=wrap;html=1;" vertex="1" parent="9fefTRs_4637ZHwM16R_-1">
          <mxGeometry x="40" y="310" width="110" height="30" as="geometry" />
        </mxCell>
        <mxCell id="yX5QV8wxiJQRO8G2LmlR-0" value="Edit &amp;nbsp;Mode" style="strokeWidth=1;shadow=0;dashed=0;align=center;html=1;shape=mxgraph.mockup.buttons.button;strokeColor=#666666;fontColor=#ffffff;mainText=;buttonStyle=round;fontSize=17;fontStyle=1;fillColor=#008cff;whiteSpace=wrap;" vertex="1" parent="9fefTRs_4637ZHwM16R_-1">
          <mxGeometry x="20" y="390" width="150" height="50" as="geometry" />
        </mxCell>
        <mxCell id="aLvDqRo2paLKl5vz0-2w-9" value="7808 ICT" style="rounded=0;whiteSpace=wrap;html=1;" vertex="1" parent="9fefTRs_4637ZHwM16R_-1">
          <mxGeometry x="40" y="340" width="110" height="30" as="geometry" />
        </mxCell>
        <mxCell id="QXl-Y1-3co5qXZqDrvJY-0" value="Window Title" style="strokeWidth=1;shadow=0;dashed=0;align=center;html=1;shape=mxgraph.mockup.containers.window;align=left;verticalAlign=top;spacingLeft=8;strokeColor2=#008cff;strokeColor3=#c4c4c4;fontColor=#666666;mainText=;fontSize=17;labelBackgroundColor=none;" vertex="1" parent="9fefTRs_4637ZHwM16R_-1">
          <mxGeometry x="850" y="80" width="550" height="380" as="geometry" />
        </mxCell>
        <mxCell id="QXl-Y1-3co5qXZqDrvJY-1" value="&amp;nbsp;Ben - Li &amp;nbsp;- s5151515 - 7808 ICT - 172.12.2.1" style="strokeWidth=1;shadow=0;dashed=0;align=center;html=1;shape=mxgraph.mockup.containers.rrect;rSize=0;strokeColor=#666666;fontColor=#666666;fontSize=17;verticalAlign=top;whiteSpace=wrap;fillColor=#ffffff;spacingTop=32;" vertex="1" parent="9fefTRs_4637ZHwM16R_-1">
          <mxGeometry x="850" y="470" width="560" height="110" as="geometry" />
        </mxCell>
        <mxCell id="QXl-Y1-3co5qXZqDrvJY-2" value="Modify Message" style="strokeWidth=1;shadow=0;dashed=0;align=center;html=1;shape=mxgraph.mockup.containers.rrect;rSize=0;fontSize=17;fontColor=#666666;strokeColor=#666666;align=left;spacingLeft=8;fillColor=#ffffff;resizeWidth=1;" vertex="1" parent="QXl-Y1-3co5qXZqDrvJY-1">
          <mxGeometry width="560" height="30" relative="1" as="geometry" />
        </mxCell>
        <mxCell id="QXl-Y1-3co5qXZqDrvJY-3" value="" style="shape=ellipse;strokeColor=#008cff;resizable=0;fillColor=none;html=1;" vertex="1" parent="QXl-Y1-3co5qXZqDrvJY-2">
          <mxGeometry x="1" y="0.5" width="20" height="20" relative="1" as="geometry">
            <mxPoint x="-25" y="-10" as="offset" />
          </mxGeometry>
        </mxCell>
        <mxCell id="QXl-Y1-3co5qXZqDrvJY-4" value="Confirm&amp;nbsp;" style="strokeWidth=1;shadow=0;dashed=0;align=center;html=1;shape=mxgraph.mockup.containers.rrect;rSize=0;fontSize=16;fontColor=#666666;strokeColor=#c4c4c4;resizable=0;whiteSpace=wrap;fillColor=#ffffff;" vertex="1" parent="QXl-Y1-3co5qXZqDrvJY-1">
          <mxGeometry x="0.5" y="1" width="120" height="25" relative="1" as="geometry">
            <mxPoint x="-60" y="-33" as="offset" />
          </mxGeometry>
        </mxCell>
        <mxCell id="QXl-Y1-3co5qXZqDrvJY-5" value="" style="verticalLabelPosition=bottom;shadow=0;dashed=0;align=center;html=1;verticalAlign=top;strokeWidth=1;shape=mxgraph.mockup.containers.userMale;strokeColor=#666666;strokeColor2=#008cff;" vertex="1" parent="9fefTRs_4637ZHwM16R_-1">
          <mxGeometry x="1290" y="128" width="100" height="100" as="geometry" />
        </mxCell>
        <mxCell id="QXl-Y1-3co5qXZqDrvJY-6" value="E-mail" style="strokeWidth=1;shadow=0;dashed=0;align=center;html=1;shape=mxgraph.mockup.forms.anchor;align=right;spacingRight=2;fontColor=#666666;" vertex="1" parent="9fefTRs_4637ZHwM16R_-1">
          <mxGeometry x="870" y="180" width="50" height="18" as="geometry" />
        </mxCell>
        <mxCell id="QXl-Y1-3co5qXZqDrvJY-7" value="Ben.Li@griffithuni.edu.au" style="strokeWidth=1;shadow=0;dashed=0;align=center;html=1;shape=mxgraph.mockup.forms.rrect;fillColor=#ffffff;rSize=0;fontColor=#666666;align=left;spacingLeft=3;strokeColor=#999999;" vertex="1" parent="9fefTRs_4637ZHwM16R_-1">
          <mxGeometry x="930" y="180" width="350" height="18" as="geometry" />
        </mxCell>
        <mxCell id="QXl-Y1-3co5qXZqDrvJY-8" value="First Name" style="strokeWidth=1;shadow=0;dashed=0;align=center;html=1;shape=mxgraph.mockup.forms.anchor;align=right;spacingRight=2;fontColor=#666666;" vertex="1" parent="9fefTRs_4637ZHwM16R_-1">
          <mxGeometry x="870" y="215" width="50" height="18" as="geometry" />
        </mxCell>
        <mxCell id="QXl-Y1-3co5qXZqDrvJY-9" value="Ben" style="strokeWidth=1;shadow=0;dashed=0;align=center;html=1;shape=mxgraph.mockup.forms.rrect;fillColor=#ffffff;rSize=0;fontColor=#666666;align=left;spacingLeft=3;strokeColor=#999999;" vertex="1" parent="9fefTRs_4637ZHwM16R_-1">
          <mxGeometry x="930" y="215" width="350" height="18" as="geometry" />
        </mxCell>
        <mxCell id="QXl-Y1-3co5qXZqDrvJY-10" value="Last Name" style="strokeWidth=1;shadow=0;dashed=0;align=center;html=1;shape=mxgraph.mockup.forms.anchor;align=right;spacingRight=2;fontColor=#666666;" vertex="1" parent="9fefTRs_4637ZHwM16R_-1">
          <mxGeometry x="870" y="250" width="50" height="18" as="geometry" />
        </mxCell>
        <mxCell id="QXl-Y1-3co5qXZqDrvJY-11" value="Li" style="strokeWidth=1;shadow=0;dashed=0;align=center;html=1;shape=mxgraph.mockup.forms.rrect;fillColor=#ffffff;rSize=0;fontColor=#666666;align=left;spacingLeft=3;strokeColor=#999999;" vertex="1" parent="9fefTRs_4637ZHwM16R_-1">
          <mxGeometry x="930" y="250" width="350" height="18" as="geometry" />
        </mxCell>
        <mxCell id="QXl-Y1-3co5qXZqDrvJY-12" value="Course" style="strokeWidth=1;shadow=0;dashed=0;align=center;html=1;shape=mxgraph.mockup.forms.anchor;align=right;spacingRight=2;fontColor=#666666;" vertex="1" parent="9fefTRs_4637ZHwM16R_-1">
          <mxGeometry x="870" y="285" width="50" height="18" as="geometry" />
        </mxCell>
        <mxCell id="QXl-Y1-3co5qXZqDrvJY-13" value="7808 ICT / 7809 ICT" style="strokeWidth=1;shadow=0;dashed=0;align=center;html=1;shape=mxgraph.mockup.forms.rrect;fillColor=#ffffff;rSize=0;fontColor=#666666;align=left;spacingLeft=3;strokeColor=#999999;" vertex="1" parent="9fefTRs_4637ZHwM16R_-1">
          <mxGeometry x="930" y="285" width="350" height="18" as="geometry" />
        </mxCell>
        <mxCell id="QXl-Y1-3co5qXZqDrvJY-14" value="Sub-Net" style="strokeWidth=1;shadow=0;dashed=0;align=center;html=1;shape=mxgraph.mockup.forms.anchor;align=right;spacingRight=2;fontColor=#666666;" vertex="1" parent="9fefTRs_4637ZHwM16R_-1">
          <mxGeometry x="870" y="320" width="50" height="18" as="geometry" />
        </mxCell>
        <mxCell id="QXl-Y1-3co5qXZqDrvJY-15" value="172.17.2.1&lt;br&gt;172.17.2.2&lt;br&gt;172.35.35.1&lt;br&gt;&lt;br&gt;&lt;br&gt;" style="strokeWidth=1;shadow=0;dashed=0;align=center;html=1;shape=mxgraph.mockup.forms.rrect;fillColor=#ffffff;rSize=0;fontColor=#666666;align=left;spacingLeft=3;strokeColor=#999999;" vertex="1" parent="9fefTRs_4637ZHwM16R_-1">
          <mxGeometry x="930" y="320" width="350" height="90" as="geometry" />
        </mxCell>
        <mxCell id="QXl-Y1-3co5qXZqDrvJY-17" value="S Number" style="strokeWidth=1;shadow=0;dashed=0;align=center;html=1;shape=mxgraph.mockup.forms.anchor;align=right;spacingRight=2;fontColor=#666666;" vertex="1" parent="9fefTRs_4637ZHwM16R_-1">
          <mxGeometry x="870" y="142" width="50" height="18" as="geometry" />
        </mxCell>
        <mxCell id="QXl-Y1-3co5qXZqDrvJY-18" value="s5151957" style="strokeWidth=1;shadow=0;dashed=0;align=center;html=1;shape=mxgraph.mockup.forms.rrect;fillColor=#ffffff;rSize=0;fontColor=#666666;align=left;spacingLeft=3;strokeColor=#999999;" vertex="1" parent="9fefTRs_4637ZHwM16R_-1">
          <mxGeometry x="930" y="142" width="350" height="18" as="geometry" />
        </mxCell>
        <mxCell id="QXl-Y1-3co5qXZqDrvJY-19" value="Old Data" style="strokeWidth=1;shadow=0;dashed=0;align=center;html=1;shape=mxgraph.mockup.buttons.button;strokeColor=#666666;fontColor=#ffffff;mainText=;buttonStyle=round;fontSize=17;fontStyle=1;fillColor=#008cff;whiteSpace=wrap;" vertex="1" parent="9fefTRs_4637ZHwM16R_-1">
          <mxGeometry x="-500" y="215" width="150" height="50" as="geometry" />
        </mxCell>
        <mxCell id="QXl-Y1-3co5qXZqDrvJY-20" value="New Data" style="strokeWidth=1;shadow=0;dashed=0;align=center;html=1;shape=mxgraph.mockup.buttons.button;strokeColor=#666666;fontColor=#ffffff;mainText=;buttonStyle=round;fontSize=17;fontStyle=1;fillColor=#008cff;whiteSpace=wrap;" vertex="1" parent="9fefTRs_4637ZHwM16R_-1">
          <mxGeometry x="-260" y="218" width="150" height="50" as="geometry" />
        </mxCell>
      </root>
    </mxGraphModel>
  </diagram>
</mxfile>
